<mxfile host="app.diagrams.net" modified="2023-11-16T12:50:04.762Z" agent="Mozilla/5.0 (Macintosh; Intel Mac OS X 10_15_7) AppleWebKit/537.36 (KHTML, like Gecko) Chrome/119.0.0.0 Safari/537.36" etag="q7hrcx80dGb6QQQz0dnz" version="22.1.2" type="github">
  <diagram name="Page-1" id="97916047-d0de-89f5-080d-49f4d83e522f">
    <mxGraphModel dx="1362" dy="981" grid="1" gridSize="10" guides="1" tooltips="1" connect="1" arrows="1" fold="1" page="1" pageScale="1.5" pageWidth="1169" pageHeight="827" background="none" math="0" shadow="0">
      <root>
        <mxCell id="0" />
        <mxCell id="1" parent="0" />
        <mxCell id="l2Q2aSxZdJEc-GcnOcNp-60" style="edgeStyle=orthogonalEdgeStyle;rounded=0;orthogonalLoop=1;jettySize=auto;html=1;entryX=0.5;entryY=1;entryDx=0;entryDy=0;" edge="1" parent="1" source="2" target="l2Q2aSxZdJEc-GcnOcNp-58">
          <mxGeometry relative="1" as="geometry">
            <Array as="points">
              <mxPoint x="820" y="180" />
              <mxPoint x="520" y="180" />
            </Array>
          </mxGeometry>
        </mxCell>
        <mxCell id="l2Q2aSxZdJEc-GcnOcNp-61" style="edgeStyle=orthogonalEdgeStyle;rounded=0;orthogonalLoop=1;jettySize=auto;html=1;entryX=0.5;entryY=1;entryDx=0;entryDy=0;exitX=0.5;exitY=0;exitDx=0;exitDy=0;" edge="1" parent="1" source="2" target="l2Q2aSxZdJEc-GcnOcNp-59">
          <mxGeometry relative="1" as="geometry">
            <Array as="points">
              <mxPoint x="820" y="140" />
              <mxPoint x="820" y="140" />
            </Array>
          </mxGeometry>
        </mxCell>
        <mxCell id="l2Q2aSxZdJEc-GcnOcNp-80" style="edgeStyle=orthogonalEdgeStyle;rounded=0;orthogonalLoop=1;jettySize=auto;html=1;exitX=0.5;exitY=0;exitDx=0;exitDy=0;" edge="1" parent="1" source="2" target="l2Q2aSxZdJEc-GcnOcNp-79">
          <mxGeometry relative="1" as="geometry">
            <Array as="points">
              <mxPoint x="820" y="100" />
              <mxPoint x="820" y="180" />
              <mxPoint x="1120" y="180" />
            </Array>
          </mxGeometry>
        </mxCell>
        <mxCell id="2" value="实验招募与项目管理平台" style="rounded=1;fillColor=#10739E;strokeColor=none;shadow=1;gradientColor=none;fontStyle=1;fontColor=#FFFFFF;fontSize=14;direction=west;" parent="1" vertex="1">
          <mxGeometry x="715" y="40" width="210" height="60" as="geometry" />
        </mxCell>
        <mxCell id="l2Q2aSxZdJEc-GcnOcNp-71" style="edgeStyle=orthogonalEdgeStyle;rounded=0;orthogonalLoop=1;jettySize=auto;html=1;" edge="1" parent="1" source="l2Q2aSxZdJEc-GcnOcNp-58" target="l2Q2aSxZdJEc-GcnOcNp-62">
          <mxGeometry relative="1" as="geometry" />
        </mxCell>
        <mxCell id="l2Q2aSxZdJEc-GcnOcNp-72" style="edgeStyle=orthogonalEdgeStyle;rounded=0;orthogonalLoop=1;jettySize=auto;html=1;entryX=0.5;entryY=1;entryDx=0;entryDy=0;" edge="1" parent="1" source="l2Q2aSxZdJEc-GcnOcNp-58" target="l2Q2aSxZdJEc-GcnOcNp-63">
          <mxGeometry relative="1" as="geometry">
            <mxPoint x="470" y="360" as="targetPoint" />
          </mxGeometry>
        </mxCell>
        <mxCell id="l2Q2aSxZdJEc-GcnOcNp-73" style="edgeStyle=orthogonalEdgeStyle;rounded=0;orthogonalLoop=1;jettySize=auto;html=1;entryX=0.5;entryY=1;entryDx=0;entryDy=0;" edge="1" parent="1" source="l2Q2aSxZdJEc-GcnOcNp-58" target="l2Q2aSxZdJEc-GcnOcNp-64">
          <mxGeometry relative="1" as="geometry">
            <mxPoint x="570" y="360" as="targetPoint" />
          </mxGeometry>
        </mxCell>
        <mxCell id="l2Q2aSxZdJEc-GcnOcNp-74" style="edgeStyle=orthogonalEdgeStyle;rounded=0;orthogonalLoop=1;jettySize=auto;html=1;entryX=0.5;entryY=1;entryDx=0;entryDy=0;" edge="1" parent="1" source="l2Q2aSxZdJEc-GcnOcNp-58" target="l2Q2aSxZdJEc-GcnOcNp-65">
          <mxGeometry relative="1" as="geometry" />
        </mxCell>
        <mxCell id="l2Q2aSxZdJEc-GcnOcNp-58" value="被试招募模块" style="rounded=1;fillColor=#10739E;strokeColor=none;shadow=1;gradientColor=none;fontStyle=1;fontColor=#FFFFFF;fontSize=14;direction=west;" vertex="1" parent="1">
          <mxGeometry x="420" y="250" width="200" height="60" as="geometry" />
        </mxCell>
        <mxCell id="l2Q2aSxZdJEc-GcnOcNp-76" style="edgeStyle=orthogonalEdgeStyle;rounded=0;orthogonalLoop=1;jettySize=auto;html=1;entryX=0.5;entryY=1;entryDx=0;entryDy=0;" edge="1" parent="1" source="l2Q2aSxZdJEc-GcnOcNp-59" target="l2Q2aSxZdJEc-GcnOcNp-67">
          <mxGeometry relative="1" as="geometry" />
        </mxCell>
        <mxCell id="l2Q2aSxZdJEc-GcnOcNp-77" style="edgeStyle=orthogonalEdgeStyle;rounded=0;orthogonalLoop=1;jettySize=auto;html=1;entryX=0.5;entryY=1;entryDx=0;entryDy=0;" edge="1" parent="1" source="l2Q2aSxZdJEc-GcnOcNp-59" target="l2Q2aSxZdJEc-GcnOcNp-68">
          <mxGeometry relative="1" as="geometry" />
        </mxCell>
        <mxCell id="l2Q2aSxZdJEc-GcnOcNp-78" style="edgeStyle=orthogonalEdgeStyle;rounded=0;orthogonalLoop=1;jettySize=auto;html=1;entryX=0.5;entryY=1;entryDx=0;entryDy=0;" edge="1" parent="1" source="l2Q2aSxZdJEc-GcnOcNp-59" target="l2Q2aSxZdJEc-GcnOcNp-69">
          <mxGeometry relative="1" as="geometry" />
        </mxCell>
        <mxCell id="l2Q2aSxZdJEc-GcnOcNp-59" value="项目管理模块" style="rounded=1;fillColor=#10739E;strokeColor=none;shadow=1;gradientColor=none;fontStyle=1;fontColor=#FFFFFF;fontSize=14;direction=west;" vertex="1" parent="1">
          <mxGeometry x="720" y="250" width="200" height="60" as="geometry" />
        </mxCell>
        <mxCell id="l2Q2aSxZdJEc-GcnOcNp-62" value="被试招募" style="rounded=1;fillColor=#10739E;strokeColor=none;shadow=1;gradientColor=none;fontStyle=1;fontColor=#FFFFFF;fontSize=14;direction=west;whiteSpace=wrap;spacingLeft=8;spacingRight=8;" vertex="1" parent="1">
          <mxGeometry x="380" y="410" width="40" height="210" as="geometry" />
        </mxCell>
        <mxCell id="l2Q2aSxZdJEc-GcnOcNp-63" value="被试筛选" style="rounded=1;fillColor=#10739E;strokeColor=none;shadow=1;gradientColor=none;fontStyle=1;fontColor=#FFFFFF;fontSize=14;direction=west;whiteSpace=wrap;spacingLeft=8;spacingRight=8;" vertex="1" parent="1">
          <mxGeometry x="460" y="410" width="40" height="210" as="geometry" />
        </mxCell>
        <mxCell id="l2Q2aSxZdJEc-GcnOcNp-64" value="被试分配" style="rounded=1;fillColor=#10739E;strokeColor=none;shadow=1;gradientColor=none;fontStyle=1;fontColor=#FFFFFF;fontSize=14;direction=west;whiteSpace=wrap;spacingLeft=8;spacingRight=8;" vertex="1" parent="1">
          <mxGeometry x="540" y="410" width="40" height="210" as="geometry" />
        </mxCell>
        <mxCell id="l2Q2aSxZdJEc-GcnOcNp-65" value="被试通知" style="rounded=1;fillColor=#10739E;strokeColor=none;shadow=1;gradientColor=none;fontStyle=1;fontColor=#FFFFFF;fontSize=14;direction=west;whiteSpace=wrap;spacingLeft=8;spacingRight=8;" vertex="1" parent="1">
          <mxGeometry x="620" y="410" width="40" height="210" as="geometry" />
        </mxCell>
        <mxCell id="l2Q2aSxZdJEc-GcnOcNp-67" value="项目发布" style="rounded=1;fillColor=#10739E;strokeColor=none;shadow=1;gradientColor=none;fontStyle=1;fontColor=#FFFFFF;fontSize=14;direction=west;whiteSpace=wrap;spacingLeft=8;spacingRight=8;" vertex="1" parent="1">
          <mxGeometry x="720" y="410" width="40" height="210" as="geometry" />
        </mxCell>
        <mxCell id="l2Q2aSxZdJEc-GcnOcNp-68" value="项目监控" style="rounded=1;fillColor=#10739E;strokeColor=none;shadow=1;gradientColor=none;fontStyle=1;fontColor=#FFFFFF;fontSize=14;direction=west;whiteSpace=wrap;spacingLeft=8;spacingRight=8;" vertex="1" parent="1">
          <mxGeometry x="800" y="410" width="40" height="210" as="geometry" />
        </mxCell>
        <mxCell id="l2Q2aSxZdJEc-GcnOcNp-69" value="项目分析" style="rounded=1;fillColor=#10739E;strokeColor=none;shadow=1;gradientColor=none;fontStyle=1;fontColor=#FFFFFF;fontSize=14;direction=west;whiteSpace=wrap;spacingLeft=8;spacingRight=8;" vertex="1" parent="1">
          <mxGeometry x="880" y="410" width="40" height="210" as="geometry" />
        </mxCell>
        <mxCell id="l2Q2aSxZdJEc-GcnOcNp-88" style="edgeStyle=orthogonalEdgeStyle;rounded=0;orthogonalLoop=1;jettySize=auto;html=1;" edge="1" parent="1" source="l2Q2aSxZdJEc-GcnOcNp-79" target="l2Q2aSxZdJEc-GcnOcNp-87">
          <mxGeometry relative="1" as="geometry" />
        </mxCell>
        <mxCell id="l2Q2aSxZdJEc-GcnOcNp-79" value="系统管理模块" style="rounded=1;fillColor=#10739E;strokeColor=none;shadow=1;gradientColor=none;fontStyle=1;fontColor=#FFFFFF;fontSize=14;direction=west;" vertex="1" parent="1">
          <mxGeometry x="1020" y="250" width="200" height="60" as="geometry" />
        </mxCell>
        <mxCell id="l2Q2aSxZdJEc-GcnOcNp-81" style="edgeStyle=orthogonalEdgeStyle;rounded=0;orthogonalLoop=1;jettySize=auto;html=1;entryX=0.5;entryY=1;entryDx=0;entryDy=0;" edge="1" parent="1" target="l2Q2aSxZdJEc-GcnOcNp-84" source="l2Q2aSxZdJEc-GcnOcNp-79">
          <mxGeometry relative="1" as="geometry">
            <mxPoint x="1120" y="310" as="sourcePoint" />
          </mxGeometry>
        </mxCell>
        <mxCell id="l2Q2aSxZdJEc-GcnOcNp-82" style="edgeStyle=orthogonalEdgeStyle;rounded=0;orthogonalLoop=1;jettySize=auto;html=1;entryX=0.5;entryY=1;entryDx=0;entryDy=0;" edge="1" parent="1" target="l2Q2aSxZdJEc-GcnOcNp-85" source="l2Q2aSxZdJEc-GcnOcNp-79">
          <mxGeometry relative="1" as="geometry">
            <mxPoint x="1120" y="310" as="sourcePoint" />
          </mxGeometry>
        </mxCell>
        <mxCell id="l2Q2aSxZdJEc-GcnOcNp-83" style="edgeStyle=orthogonalEdgeStyle;rounded=0;orthogonalLoop=1;jettySize=auto;html=1;entryX=0.5;entryY=1;entryDx=0;entryDy=0;" edge="1" parent="1" target="l2Q2aSxZdJEc-GcnOcNp-86" source="l2Q2aSxZdJEc-GcnOcNp-79">
          <mxGeometry relative="1" as="geometry">
            <mxPoint x="1120" y="310" as="sourcePoint" />
          </mxGeometry>
        </mxCell>
        <mxCell id="l2Q2aSxZdJEc-GcnOcNp-84" value="用户登录" style="rounded=1;fillColor=#10739E;strokeColor=none;shadow=1;gradientColor=none;fontStyle=1;fontColor=#FFFFFF;fontSize=14;direction=west;whiteSpace=wrap;spacingLeft=8;spacingRight=8;" vertex="1" parent="1">
          <mxGeometry x="980" y="410" width="40" height="210" as="geometry" />
        </mxCell>
        <mxCell id="l2Q2aSxZdJEc-GcnOcNp-85" value="消息推送" style="rounded=1;fillColor=#10739E;strokeColor=none;shadow=1;gradientColor=none;fontStyle=1;fontColor=#FFFFFF;fontSize=14;direction=west;whiteSpace=wrap;spacingLeft=8;spacingRight=8;" vertex="1" parent="1">
          <mxGeometry x="1060" y="410" width="40" height="210" as="geometry" />
        </mxCell>
        <mxCell id="l2Q2aSxZdJEc-GcnOcNp-86" value="用户反馈" style="rounded=1;fillColor=#10739E;strokeColor=none;shadow=1;gradientColor=none;fontStyle=1;fontColor=#FFFFFF;fontSize=14;direction=west;whiteSpace=wrap;spacingLeft=8;spacingRight=8;" vertex="1" parent="1">
          <mxGeometry x="1140" y="410" width="40" height="210" as="geometry" />
        </mxCell>
        <mxCell id="l2Q2aSxZdJEc-GcnOcNp-87" value="日程安排" style="rounded=1;fillColor=#10739E;strokeColor=none;shadow=1;gradientColor=none;fontStyle=1;fontColor=#FFFFFF;fontSize=14;direction=west;whiteSpace=wrap;spacingLeft=8;spacingRight=8;" vertex="1" parent="1">
          <mxGeometry x="1220" y="410" width="40" height="210" as="geometry" />
        </mxCell>
      </root>
    </mxGraphModel>
  </diagram>
</mxfile>
